<svg xmlns="http://www.w3.org/2000/svg" style="display: none;">
    <symbol id="icon-plus" viewBox="0 0 24 24">
        <path d="M12 5v14m7-7H5" stroke="currentColor" stroke-width="2" stroke-linecap="round" stroke-linejoin="round"/>
    </symbol>
    <symbol id="icon-trash" viewBox="0 0 24 24">
        <path d="M3 6h18M9 6v12m6-12v12M4 6h16a2 2 0 0 1 2 2v12a2 2 0 0 1-2 2H4a2 2 0 0 1-2-2V8a2 2 0 0 1 2-2z" stroke="currentColor" stroke-width="2" stroke-linecap="round" stroke-linejoin="round"/>
    </symbol>
    <symbol id="icon-check" viewBox="0 0 24 24">
        <path d="M5 12l5 5L20 7" stroke="currentColor" stroke-width="2" stroke-linecap="round" stroke-linejoin="round"/>
    </symbol>
    <symbol id="icon-crosshairs" viewBox="0 0 24 24">
        <path d="M12 2v4m0 12v4m10-10h-4m-12 0H2m16.24 8.24l-2.83-2.83m-8.49 0l-2.83 2.83m0-8.49l2.83 2.83m8.49-2.83l2.83-2.83" stroke="currentColor" stroke-width="2" stroke-linecap="round" stroke-linejoin="round"/>
    </symbol>
    <symbol id="icon-pause" viewBox="0 0 24 24">
        <path d="M6 19V5m12 14V5" stroke="currentColor" stroke-width="2" stroke-linecap="round" stroke-linejoin="round"/>
    </symbol>
    <symbol id="icon-play" viewBox="0 0 24 24">
        <path d="M8 5v14l11-7z" stroke="currentColor" stroke-width="2" stroke-linecap="round" stroke-linejoin="round"/>
    </symbol>
    <symbol id="icon-reset" viewBox="0 0 24 24">
        <path d="M12 4V1m0 22v-3m-8-8H1m22 0h-3m-4 8a9 9 0 1 0-9-9" stroke="currentColor" stroke-width="2" stroke-linecap="round" stroke-linejoin="round"/>
    </symbol>
</svg>